<?xml version="1.0" encoding="UTF-8" standalone="no"?>
<!-- Created with Inkscape (http://www.inkscape.org/) -->
<svg
   xmlns:svg="http://www.w3.org/2000/svg"
   xmlns="http://www.w3.org/2000/svg"
   version="1.0"
   width="748.19464"
   height="669.44763"
   id="svg2">
  <defs
     id="defs4" />
  <g
     transform="translate(-3.0993185,-306.65267)"
     id="layer1">
    <path
       d="M 740.04025,504.4701 C 724.813,482.75439 698.08465,473.66925 674.96291,481.12393 C 674.81194,474.03504 672.78366,466.84119 668.66324,460.31504 C 657.00252,441.84607 633.18811,435.8179 615.49078,446.88948 C 597.79345,457.96103 592.88129,481.92825 604.54203,500.39722 L 604.69452,500.67178 C 605.19888,501.45806 605.75875,502.19893 606.30578,502.93897 C 604.4661,503.88691 602.64707,504.98331 600.88798,506.20396 L 104.73365,850.49109 C 86.248639,824.80573 51.832456,817.34727 26.891992,833.91019 C 1.413011,850.83074 -4.539842,886.43567 13.601686,913.42429 C 29.126362,936.52004 57.279924,945.84291 81.049441,937.44586 C 81.396748,944.53135 83.614708,951.67627 87.91813,958.0881 C 100.09061,976.2239 124.09742,981.5513 141.47834,969.9894 C 158.85926,958.42745 163.07739,934.34239 150.90491,916.20663 L 150.72675,915.94988 C 149.20834,913.72224 147.51271,911.69963 145.67238,909.87193 L 642.00646,565.46007 C 643.36048,564.5205 644.64924,563.51828 645.86912,562.47543 C 646.46648,563.5558 647.06325,564.65053 647.73244,565.70883 L 647.98186,566.06826 C 665.47213,593.30024 700.40856,602.25933 726.22654,586.13513 C 752.16852,569.93348 759.09697,534.48136 741.71701,506.99614 C 741.17389,506.13723 740.61726,505.29302 740.04025,504.4701 z"
       id="path3165"
       style="opacity:1;fill:#cccccf;fill-opacity:1;fill-rule:nonzero;stroke:none;stroke-width:9.69999981;stroke-linecap:round;stroke-linejoin:miter;stroke-miterlimit:4;stroke-dasharray:none;stroke-dashoffset:0;stroke-opacity:1" />
    <path
       d="M 418.15625,792.84375 C 396.56482,792.84375 379.1875,811.3298 379.1875,834.28125 L 379.1875,835.84375 L 375.9375,835.84375 L 375.9375,835.375 C 375.9375,812.42357 358.56018,793.9375 336.96875,793.9375 C 315.37732,793.9375 298,812.42355 298,835.375 L 298,863.28125 C 298,868.55407 298.91862,873.58803 300.59375,878.21875 C 304.13028,893.86502 320.94679,905.65625 341.3125,905.65625 L 406.78125,905.65625 C 412.01808,905.65625 417.02039,904.86134 421.625,903.4375 C 441.57767,901.58167 457.125,883.89472 457.125,862.1875 L 457.125,834.28125 C 457.125,811.32982 439.74768,792.84375 418.15625,792.84375 z"
       id="rect3149"
       style="opacity:1;fill:#888888;fill-opacity:1;fill-rule:nonzero;stroke:none;stroke-width:9.69999981;stroke-linecap:round;stroke-linejoin:miter;stroke-miterlimit:4;stroke-dasharray:none;stroke-dashoffset:0;stroke-opacity:1" />
    <path
       d="M 14.353028,504.4701 C 29.580278,482.75439 56.308628,473.66925 79.430368,481.12393 C 79.581338,474.03504 81.609618,466.84119 85.730038,460.31504 C 97.390758,441.84607 121.20517,435.8179 138.9025,446.88948 C 156.59983,457.96103 161.51199,481.92825 149.85125,500.39722 L 149.69876,500.67178 C 149.1944,501.45806 148.63453,502.19893 148.0875,502.93897 C 149.92718,503.88691 151.74621,504.98331 153.5053,506.20396 L 649.65963,850.49109 C 668.14464,824.80573 702.56082,817.34727 727.50129,833.91019 C 752.98027,850.83074 758.93312,886.43567 740.79159,913.42429 C 725.26692,936.52004 697.11335,945.84291 673.34384,937.44586 C 672.99653,944.53135 670.77857,951.67627 666.47515,958.0881 C 654.30267,976.2239 630.29586,981.5513 612.91494,969.9894 C 595.53402,958.42745 591.31589,934.34239 603.48837,916.20663 L 603.66653,915.94988 C 605.18494,913.72224 606.88057,911.69963 608.7209,909.87193 L 112.38682,565.46007 C 111.0328,564.5205 109.74404,563.51828 108.52416,562.47543 C 107.9268,563.5558 107.33003,564.65053 106.66084,565.70883 L 106.41142,566.06826 C 88.921148,593.30024 53.984718,602.25933 28.166738,586.13513 C 2.224758,569.93348 -4.703692,534.48136 12.676268,506.99614 C 13.219388,506.13723 13.776018,505.29302 14.353028,504.4701 z"
       id="path3176"
       style="opacity:1;fill:#cccccf;fill-opacity:1;fill-rule:nonzero;stroke:none;stroke-width:9.69999981;stroke-linecap:round;stroke-linejoin:miter;stroke-miterlimit:4;stroke-dasharray:none;stroke-dashoffset:0;stroke-opacity:1" />
    <path
       d="M 377.125,306.65625 C 269.09871,307.21231 179.24791,391.3037 174.28125,498.90625 C 171.10603,567.69711 203.40404,630.02594 255.1875,668.71875 C 255.19253,668.72251 255.18246,668.74624 255.1875,668.75 L 256.8125,736.84375 C 256.8125,759.79518 274.18982,778.24998 295.78125,778.25 C 317.37268,778.25 334.75,759.79518 334.75,736.84375 L 333.96875,704.71875 C 335.34287,705.01892 336.74019,705.32088 338.125,705.59375 C 338.07634,706.44517 338.03125,707.29137 338.03125,708.15625 L 338.03125,736.0625 C 338.03125,759.01393 355.43982,777.50001 377.03125,777.5 C 398.62268,777.5 416,759.01395 416,736.0625 L 416,708.15625 C 416,707.46009 415.96912,706.78128 415.9375,706.09375 C 417.08639,705.88289 418.23267,705.66733 419.375,705.4375 L 420.09375,736.0625 C 420.09375,759.01393 437.47108,777.5 459.0625,777.5 C 480.65393,777.5 498.03125,759.01395 498.03125,736.0625 L 496.5,672.40625 C 546.05292,637.71553 579.46273,581.69838 582.4375,517.25 C 587.56438,406.1764 500.30537,311.89892 387.65625,306.84375 C 384.13597,306.68578 380.60972,306.63831 377.125,306.65625 z M 442.09375,500.625 C 442.90033,500.62048 443.71644,500.61644 444.53125,500.65625 C 470.60528,501.93029 490.81168,525.69393 489.625,553.6875 C 488.44398,581.54722 466.55127,603.15247 440.59375,602.09375 L 440.25,602.09375 C 414.17597,600.81972 393.96957,577.05607 395.15625,549.0625 C 396.30585,521.94376 417.08973,500.76514 442.09375,500.625 z M 316.28125,537.15625 C 316.85031,537.15338 317.42513,537.16225 318,537.1875 C 336.39589,537.9956 350.64973,553.05648 349.8125,570.8125 C 348.97925,588.48363 333.53243,602.20278 315.21875,601.53125 L 314.96875,601.53125 C 296.57288,600.72317 282.31902,585.66227 283.15625,567.90625 C 283.96733,550.70513 298.64029,537.24514 316.28125,537.15625 z"
       id="path2160"
       style="opacity:1;fill:#888888;fill-opacity:1;fill-rule:nonzero;stroke:none;stroke-width:9.69999981;stroke-linecap:round;stroke-linejoin:miter;stroke-miterlimit:4;stroke-dasharray:none;stroke-dashoffset:0;stroke-opacity:1" />
  </g>
</svg>
