<?xml version="1.0" encoding="UTF-8" standalone="no"?>
<!-- Created with Inkscape (http://www.inkscape.org/) -->

<svg
   xmlns:dc="http://purl.org/dc/elements/1.1/"
   xmlns:cc="http://creativecommons.org/ns#"
   xmlns:rdf="http://www.w3.org/1999/02/22-rdf-syntax-ns#"
   xmlns:svg="http://www.w3.org/2000/svg"
   xmlns="http://www.w3.org/2000/svg"
   xmlns:sodipodi="http://sodipodi.sourceforge.net/DTD/sodipodi-0.dtd"
   xmlns:inkscape="http://www.inkscape.org/namespaces/inkscape"
   version="1.0"
   width="748.19"
   height="748.19"
   id="svg2"
   inkscape:version="0.47 r22583"
   sodipodi:docname="skull.svg"
   inkscape:export-filename="/home/tansell/tmep/cut-thro.at/skull.png"
   inkscape:export-xdpi="15.4"
   inkscape:export-ydpi="15.4">
  <metadata
     id="metadata11">
    <rdf:RDF>
      <cc:Work
         rdf:about="">
        <dc:format>image/svg+xml</dc:format>
        <dc:type
           rdf:resource="http://purl.org/dc/dcmitype/StillImage" />
        <dc:title></dc:title>
      </cc:Work>
    </rdf:RDF>
  </metadata>
  <sodipodi:namedview
     pagecolor="#ffffff"
     bordercolor="#666666"
     borderopacity="1"
     objecttolerance="10"
     gridtolerance="10"
     guidetolerance="10"
     inkscape:pageopacity="0"
     inkscape:pageshadow="2"
     inkscape:window-width="640"
     inkscape:window-height="480"
     id="namedview9"
     showgrid="false"
     inkscape:zoom="0.17925226"
     inkscape:cx="374.09732"
     inkscape:cy="329.14509"
     inkscape:window-x="0"
     inkscape:window-y="1"
     inkscape:window-maximized="0"
     inkscape:current-layer="svg2" />
  <defs
     id="defs4">
    <inkscape:perspective
       sodipodi:type="inkscape:persp3d"
       inkscape:vp_x="0 : 334.72382 : 1"
       inkscape:vp_y="0 : 1000 : 0"
       inkscape:vp_z="748.19464 : 334.72382 : 1"
       inkscape:persp3d-origin="374.09732 : 223.14921 : 1"
       id="perspective13" />
  </defs>
  <g
     transform="translate(-3.0993185,-265.9103)"
     id="layer1">
    <path
       d="m 740.04025,504.4701 c -15.22725,-21.71571 -41.9556,-30.80085 -65.07734,-23.34617 -0.15097,-7.08889 -2.17925,-14.28274 -6.29967,-20.80889 -11.66072,-18.46897 -35.47513,-24.49714 -53.17246,-13.42556 -17.69733,11.07155 -22.60949,35.03877 -10.94875,53.50774 l 0.15249,0.27456 c 0.50436,0.78628 1.06423,1.52715 1.61126,2.26719 -1.83968,0.94794 -3.65871,2.04434 -5.4178,3.26499 L 104.73365,850.49109 c -18.485011,-25.68536 -52.901194,-33.14382 -77.841658,-16.5809 -25.478981,16.92055 -31.431834,52.52548 -13.290306,79.5141 15.524676,23.09575 43.678238,32.41862 67.447755,24.02157 0.347307,7.08549 2.565267,14.23041 6.868689,20.64224 12.17248,18.1358 36.17929,23.4632 53.56021,11.9013 17.38092,-11.56195 21.59905,-35.64701 9.42657,-53.78277 l -0.17816,-0.25675 c -1.51841,-2.22764 -3.21404,-4.25025 -5.05437,-6.07795 L 642.00646,565.46007 c 1.35402,-0.93957 2.64278,-1.94179 3.86266,-2.98464 0.59736,1.08037 1.19413,2.1751 1.86332,3.2334 l 0.24942,0.35943 c 17.49027,27.23198 52.4267,36.19107 78.24468,20.06687 25.94198,-16.20165 32.87043,-51.65377 15.49047,-79.13899 -0.54312,-0.85891 -1.09975,-1.70312 -1.67676,-2.52604 z"
       id="path3165"
       style="fill:#cccccf;fill-opacity:1;fill-rule:nonzero;stroke:none" />
    <path
       d="m 418.15625,792.84375 c -21.59143,0 -38.96875,18.48605 -38.96875,41.4375 l 0,1.5625 -3.25,0 0,-0.46875 c 0,-22.95143 -17.37732,-41.4375 -38.96875,-41.4375 C 315.37732,793.9375 298,812.42355 298,835.375 l 0,27.90625 c 0,5.27282 0.91862,10.30678 2.59375,14.9375 3.53653,15.64627 20.35304,27.4375 40.71875,27.4375 l 65.46875,0 c 5.23683,0 10.23914,-0.79491 14.84375,-2.21875 19.95267,-1.85583 35.5,-19.54278 35.5,-41.25 l 0,-27.90625 c 0,-22.95143 -17.37732,-41.4375 -38.96875,-41.4375 z"
       id="rect3149"
       style="fill:#888888;fill-opacity:1;fill-rule:nonzero;stroke:none" />
    <path
       d="m 14.353028,504.4701 c 15.22725,-21.71571 41.9556,-30.80085 65.07734,-23.34617 0.15097,-7.08889 2.17925,-14.28274 6.29967,-20.80889 11.66072,-18.46897 35.475132,-24.49714 53.172462,-13.42556 17.69733,11.07155 22.60949,35.03877 10.94875,53.50774 l -0.15249,0.27456 c -0.50436,0.78628 -1.06423,1.52715 -1.61126,2.26719 1.83968,0.94794 3.65871,2.04434 5.4178,3.26499 l 496.15433,344.28713 c 18.48501,-25.68536 52.90119,-33.14382 77.84166,-16.5809 25.47898,16.92055 31.43183,52.52548 13.2903,79.5141 -15.52467,23.09575 -43.67824,32.41862 -67.44775,24.02157 -0.34731,7.08549 -2.56527,14.23041 -6.86869,20.64224 -12.17248,18.1358 -36.17929,23.4632 -53.56021,11.9013 -17.38092,-11.56195 -21.59905,-35.64701 -9.42657,-53.78277 l 0.17816,-0.25675 c 1.51841,-2.22764 3.21404,-4.25025 5.05437,-6.07795 L 112.38682,565.46007 c -1.35402,-0.93957 -2.64278,-1.94179 -3.86266,-2.98464 -0.59736,1.08037 -1.19413,2.1751 -1.86332,3.2334 l -0.24942,0.35943 c -17.490272,27.23198 -52.426702,36.19107 -78.244682,20.06687 -25.94198,-16.20165 -32.87043,-51.65377 -15.49047,-79.13899 0.54312,-0.85891 1.09975,-1.70312 1.67676,-2.52604 z"
       id="path3176"
       style="fill:#cccccf;fill-opacity:1;fill-rule:nonzero;stroke:none" />
    <path
       d="m 377.125,306.65625 c -108.02629,0.55606 -197.87709,84.64745 -202.84375,192.25 -3.17522,68.79086 29.12279,131.11969 80.90625,169.8125 0.005,0.004 -0.005,0.0275 0,0.0312 l 1.625,68.09375 c 0,22.95143 17.37732,41.40623 38.96875,41.40625 21.59143,0 38.96875,-18.45482 38.96875,-41.40625 l -0.78125,-32.125 c 1.37412,0.30017 2.77144,0.60213 4.15625,0.875 -0.0487,0.85142 -0.0937,1.69762 -0.0937,2.5625 l 0,27.90625 c 0,22.95143 17.40857,41.43751 39,41.4375 C 398.62268,777.5 416,759.01395 416,736.0625 l 0,-27.90625 c 0,-0.69616 -0.0309,-1.37497 -0.0625,-2.0625 1.14889,-0.21086 2.29517,-0.42642 3.4375,-0.65625 l 0.71875,30.625 c 0,22.95143 17.37733,41.4375 38.96875,41.4375 21.59143,0 38.96875,-18.48605 38.96875,-41.4375 L 496.5,672.40625 C 546.05292,637.71553 579.46273,581.69838 582.4375,517.25 587.56438,406.1764 500.30537,311.89892 387.65625,306.84375 c -3.52028,-0.15797 -7.04653,-0.20544 -10.53125,-0.1875 z M 442.09375,500.625 c 0.80658,-0.005 1.62269,-0.009 2.4375,0.0312 26.07403,1.27404 46.28043,25.03768 45.09375,53.03125 -1.18102,27.85972 -23.07373,49.46497 -49.03125,48.40625 l -0.34375,0 c -26.07403,-1.27403 -46.28043,-25.03768 -45.09375,-53.03125 1.1496,-27.11874 21.93348,-48.29736 46.9375,-48.4375 z m -125.8125,36.53125 c 0.56906,-0.003 1.14388,0.006 1.71875,0.0312 18.39589,0.8081 32.64973,15.86898 31.8125,33.625 -0.83325,17.67113 -16.28007,31.39028 -34.59375,30.71875 l -0.25,0 c -18.39587,-0.80808 -32.64973,-15.86898 -31.8125,-33.625 0.81108,-17.20112 15.48404,-30.66111 33.125,-30.75 z"
       id="path2160"
       style="fill:#888888;fill-opacity:1;fill-rule:nonzero;stroke:none" />
  </g>
</svg>
